<svg xmlns="http://www.w3.org/2000/svg" width="0" height="0" style="position:absolute">
  <symbol id="icon-book" viewBox="0 0 24 24">
    <path fill="currentColor" d="M6 4h11a2 2 0 0 1 2 2v13.5a.5.5 0 0 1-.8.4L16 18H6a2 2 0 0 1-2-2V6a2 2 0 0 1 2-2Zm0 2v10h10V6H6Z"/>
  </symbol>
  <symbol id="icon-map" viewBox="0 0 24 24">
    <path fill="currentColor" d="M9 3 3 5v16l6-2 6 2 6-2V3l-6 2-6-2Zm0 2.2 6 2V18.8l-6-2V5.2Zm-2 .6v11.8l-2 .7V6.5l2-.7Zm12 11.6-2 .7V6.3l2-.7v11.8Z"/>
  </symbol>
  <symbol id="icon-flag" viewBox="0 0 24 24">
    <path fill="currentColor" d="M4 3h1v18H4V3Zm3 0h9l-1 3 3 1-2 6H7V3Z"/>
  </symbol>
</svg>

